<svg width="26" height="26" viewBox="0 0 26 26" fill="none" xmlns="http://www.w3.org/2000/svg">
<circle cx="12.9167" cy="12.9167" r="12.9167" fill="#331E36"/>
<path fill-rule="evenodd" clip-rule="evenodd" d="M20.5 8.491C19.9302 8.74415 19.3169 8.91464 18.6737 8.99161C19.3303 8.59794 19.8346 7.97488 20.0717 7.23248C19.458 7.59723 18.7765 7.86123 18.0527 8.00433C17.4725 7.38644 16.6454 7 15.7315 7C13.9754 7 12.5516 8.42384 12.5516 10.1799C12.5516 10.4289 12.58 10.6717 12.6343 10.9047C9.99118 10.7724 7.64826 9.50618 6.07976 7.58224C5.80595 8.05186 5.64941 8.59795 5.64941 9.18071C5.64941 10.2837 6.20995 11.2571 7.06395 11.8274C6.54215 11.8109 6.05238 11.6678 5.62306 11.4296V11.4694C5.62306 13.0105 6.71987 14.2954 8.17367 14.5883C7.90709 14.6606 7.62604 14.6999 7.33621 14.6999C7.13111 14.6999 6.93169 14.6797 6.73743 14.6425C7.14196 15.9057 8.31678 16.8253 9.70807 16.8511C8.62004 17.7036 7.2489 18.2125 5.75893 18.2125C5.50165 18.2125 5.2485 18.1975 5 18.1675C6.40731 19.0696 8.07861 19.5965 9.87442 19.5965C15.7232 19.5965 18.9217 14.751 18.9217 10.5493C18.9217 10.4113 18.9191 10.2739 18.9124 10.138C19.5344 9.68856 20.0738 9.12853 20.5 8.491Z" fill="#e87461"/>
</svg>
