<svg width="26" height="26" viewBox="0 0 26 26" fill="none" xmlns="http://www.w3.org/2000/svg">
<circle cx="12.9167" cy="12.9167" r="12.9167" fill="#331E36"/>
<path d="M12.75 6.39639C14.8193 6.39639 15.0645 6.4043 15.8817 6.44158C16.6373 6.47604 17.0477 6.60229 17.3207 6.70842C17.6825 6.84901 17.9407 7.01695 18.2118 7.28813C18.4831 7.55934 18.651 7.81751 18.7916 8.17926C18.8977 8.45235 19.024 8.8627 19.0584 9.61832C19.0957 10.4355 19.1036 10.6806 19.1036 12.75C19.1036 14.8193 19.0957 15.0644 19.0584 15.8816C19.024 16.6372 18.8977 17.0476 18.7916 17.3207C18.651 17.6824 18.4831 17.9406 18.2119 18.2118C17.9407 18.483 17.6825 18.6509 17.3207 18.7915C17.0477 18.8977 16.6373 19.0239 15.8817 19.0584C15.0646 19.0957 14.8195 19.1036 12.75 19.1036C10.6805 19.1036 10.4355 19.0957 9.61835 19.0584C8.86273 19.0239 8.45238 18.8977 8.17929 18.7915C7.81754 18.6509 7.55937 18.483 7.28819 18.2118C7.017 17.9406 6.84903 17.6824 6.70844 17.3207C6.60231 17.0476 6.47606 16.6372 6.4416 15.8816C6.40432 15.0644 6.39641 14.8193 6.39641 12.75C6.39641 10.6806 6.40432 10.4355 6.4416 9.61832C6.47606 8.8627 6.60231 8.45235 6.70844 8.17926C6.84903 7.81751 7.01697 7.55934 7.28819 7.28816C7.55937 7.01695 7.81754 6.84901 8.17929 6.70842C8.45238 6.60229 8.86273 6.47604 9.61835 6.44158C10.4356 6.4043 10.6807 6.39639 12.75 6.39639ZM12.75 5C10.6452 5 10.3813 5.00892 9.5547 5.04664C8.7298 5.08426 8.16643 5.21528 7.67347 5.40685C7.16384 5.6049 6.73164 5.8699 6.30076 6.30074C5.86992 6.73162 5.60492 7.16382 5.4069 7.67345C5.2153 8.1664 5.08428 8.72977 5.04665 9.55467C5.00894 10.3813 5.00002 10.6452 5.00002 12.75C5.00002 14.8547 5.00894 15.1187 5.04665 15.9453C5.08428 16.7702 5.2153 17.3335 5.4069 17.8265C5.60492 18.3361 5.86992 18.7683 6.30076 19.1992C6.73164 19.63 7.16384 19.895 7.67347 20.0931C8.16643 20.2847 8.7298 20.4157 9.5547 20.4533C10.3813 20.491 10.6452 20.4999 12.75 20.4999C14.8548 20.4999 15.1187 20.491 15.9453 20.4533C16.7702 20.4157 17.3336 20.2847 17.8266 20.0931C18.3362 19.895 18.7684 19.63 19.1993 19.1992C19.6301 18.7683 19.8951 18.3361 20.0932 17.8265C20.2847 17.3335 20.4158 16.7702 20.4534 15.9453C20.4911 15.1187 20.5 14.8547 20.5 12.75C20.5 10.6452 20.4911 10.3813 20.4534 9.55467C20.4158 8.72977 20.2847 8.1664 20.0932 7.67345C19.8951 7.16382 19.6301 6.73162 19.1993 6.30074C18.7684 5.8699 18.3362 5.6049 17.8266 5.40685C17.3336 5.21528 16.7702 5.08426 15.9453 5.04664C15.1187 5.00892 14.8548 5 12.75 5Z" fill="#DCDCDC"/>
<path d="M12.7536 8.77386C10.5556 8.77386 8.77387 10.5556 8.77387 12.7536C8.77387 14.9515 10.5556 16.7333 12.7536 16.7333C14.9516 16.7333 16.7333 14.9515 16.7333 12.7536C16.7333 10.5556 14.9516 8.77386 12.7536 8.77386ZM12.7536 15.3369C11.3269 15.3369 10.1703 14.1803 10.1703 12.7536C10.1703 11.3268 11.3269 10.1703 12.7536 10.1703C14.1803 10.1703 15.3369 11.3268 15.3369 12.7536C15.3369 14.1803 14.1803 15.3369 12.7536 15.3369Z" fill="#DCDCDC"/>
<path d="M17.8203 8.61416C17.8203 9.12776 17.4039 9.54414 16.8903 9.54414C16.3767 9.54414 15.9603 9.12776 15.9603 8.61416C15.9603 8.10053 16.3767 7.68414 16.8903 7.68414C17.4039 7.68414 17.8203 8.10053 17.8203 8.61416Z" fill="#DCDCDC"/>
</svg>
